<svg xmlns="http://www.w3.org/2000/svg" xmlns:xlink="http://www.w3.org/1999/xlink" width="139" zoomAndPan="magnify" viewBox="0 0 104.25 116.999995" height="156" preserveAspectRatio="xMidYMid meet" version="1.0"><defs><clipPath id="14e54cd719"><path d="M 0 42 L 103.503906 42 L 103.503906 116.582031 L 0 116.582031 Z M 0 42 " clip-rule="nonzero"/></clipPath><clipPath id="7901c7b58c"><path d="M 0 44 L 103.503906 44 L 103.503906 116.582031 L 0 116.582031 Z M 0 44 " clip-rule="nonzero"/></clipPath><clipPath id="05299014b1"><path d="M 0 46 L 103.503906 46 L 103.503906 116.582031 L 0 116.582031 Z M 0 46 " clip-rule="nonzero"/></clipPath><clipPath id="c2cdd80661"><path d="M 0 48 L 103.503906 48 L 103.503906 116.582031 L 0 116.582031 Z M 0 48 " clip-rule="nonzero"/></clipPath><clipPath id="9574024007"><path d="M 0 52 L 103.503906 52 L 103.503906 116.582031 L 0 116.582031 Z M 0 52 " clip-rule="nonzero"/></clipPath><clipPath id="1de9fb9fdd"><path d="M 0 49 L 103.503906 49 L 103.503906 116.582031 L 0 116.582031 Z M 0 49 " clip-rule="nonzero"/></clipPath><clipPath id="76aabdeddc"><path d="M 0 54 L 103.503906 54 L 103.503906 116.582031 L 0 116.582031 Z M 0 54 " clip-rule="nonzero"/></clipPath><clipPath id="de8a3ec152"><path d="M 0 56 L 103.503906 56 L 103.503906 116.582031 L 0 116.582031 Z M 0 56 " clip-rule="nonzero"/></clipPath><clipPath id="a4a9fb1936"><path d="M 0 58 L 103.503906 58 L 103.503906 116.582031 L 0 116.582031 Z M 0 58 " clip-rule="nonzero"/></clipPath><clipPath id="4b67651f8a"><path d="M 0 60 L 103.503906 60 L 103.503906 116.582031 L 0 116.582031 Z M 0 60 " clip-rule="nonzero"/></clipPath><clipPath id="0cabf70130"><path d="M 0 62 L 103.503906 62 L 103.503906 116.582031 L 0 116.582031 Z M 0 62 " clip-rule="nonzero"/></clipPath><clipPath id="9b3f1e4b24"><path d="M 0 64 L 103.503906 64 L 103.503906 116.582031 L 0 116.582031 Z M 0 64 " clip-rule="nonzero"/></clipPath><clipPath id="d886762419"><path d="M 0 66 L 103.503906 66 L 103.503906 116.582031 L 0 116.582031 Z M 0 66 " clip-rule="nonzero"/></clipPath><clipPath id="9cfa1c11ac"><path d="M 0 68 L 103.503906 68 L 103.503906 116.582031 L 0 116.582031 Z M 0 68 " clip-rule="nonzero"/></clipPath><clipPath id="1295833de0"><path d="M 0 70 L 103.503906 70 L 103.503906 116.582031 L 0 116.582031 Z M 0 70 " clip-rule="nonzero"/></clipPath><clipPath id="a7bcec85ca"><path d="M 0 72 L 103.503906 72 L 103.503906 116.582031 L 0 116.582031 Z M 0 72 " clip-rule="nonzero"/></clipPath><clipPath id="b84c54cb44"><path d="M 0 74 L 103.503906 74 L 103.503906 116.582031 L 0 116.582031 Z M 0 74 " clip-rule="nonzero"/></clipPath><clipPath id="e1dff7dfbe"><path d="M 0 76 L 103.503906 76 L 103.503906 116.582031 L 0 116.582031 Z M 0 76 " clip-rule="nonzero"/></clipPath><clipPath id="9a48c7193f"><path d="M 0 78 L 103.503906 78 L 103.503906 116.582031 L 0 116.582031 Z M 0 78 " clip-rule="nonzero"/></clipPath><clipPath id="fdfc846d6b"><path d="M 0 80 L 103.503906 80 L 103.503906 116.582031 L 0 116.582031 Z M 0 80 " clip-rule="nonzero"/></clipPath><clipPath id="885d050968"><path d="M 0 82 L 103.503906 82 L 103.503906 116.582031 L 0 116.582031 Z M 0 82 " clip-rule="nonzero"/></clipPath><clipPath id="9394209379"><path d="M 0 84 L 103.503906 84 L 103.503906 116.582031 L 0 116.582031 Z M 0 84 " clip-rule="nonzero"/></clipPath></defs><g clip-path="url(#14e54cd719)"><path fill="#000000" d="M 0.0273438 133.777344 C 0.0234375 133.777344 0.0234375 133.777344 0.0234375 133.777344 L 0.0234375 133.566406 L 0.0273438 133.566406 C 0.226562 133.566406 6.726562 133.527344 14.734375 130.011719 C 22.199219 126.730469 32.542969 119.667969 39.414062 104.640625 C 43.585938 95.515625 45.714844 88.601562 47.421875 83.050781 C 51.214844 70.738281 53.300781 63.953125 71.648438 51.121094 C 81.660156 44.117188 103.210938 42.074219 103.429688 42.054688 L 103.449219 42.265625 C 103.230469 42.285156 81.738281 44.324219 71.769531 51.296875 C 53.480469 64.085938 51.398438 70.84375 47.625 83.109375 C 45.914062 88.671875 43.785156 95.589844 39.605469 104.730469 C 32.703125 119.820312 22.3125 126.914062 14.8125 130.210938 C 6.769531 133.738281 0.234375 133.777344 0.0273438 133.777344 Z M 0.0273438 133.777344 " fill-opacity="1" fill-rule="nonzero"/></g><g clip-path="url(#7901c7b58c)"><path fill="#000000" d="M 0.0351562 132.992188 L 0.0234375 132.78125 C 0.0898438 132.777344 6.722656 132.371094 15.003906 128.726562 C 22.644531 125.363281 33.296875 118.472656 40.640625 104.738281 C 45.507812 95.636719 47.859375 88.804688 49.75 83.308594 C 53.554688 72.257812 55.851562 65.585938 72.800781 53.496094 C 82.609375 46.496094 103.21875 44.082031 103.425781 44.058594 L 103.449219 44.269531 C 103.246094 44.292969 82.6875 46.703125 72.925781 53.664062 C 56.03125 65.714844 53.742188 72.363281 49.953125 83.375 C 48.0625 88.878906 45.703125 95.722656 40.832031 104.839844 C 33.457031 118.628906 22.757812 125.546875 15.082031 128.925781 C 6.761719 132.582031 0.101562 132.988281 0.0351562 132.992188 Z M 0.0351562 132.992188 " fill-opacity="1" fill-rule="nonzero"/></g><g clip-path="url(#05299014b1)"><path fill="#000000" d="M 0.0390625 132.203125 L 0.015625 131.992188 C 0.0820312 131.984375 6.773438 131.222656 15.238281 127.503906 C 23.046875 124.074219 34.007812 117.355469 41.871094 104.832031 C 47.503906 95.863281 49.960938 89.390625 52.136719 83.679688 C 55.773438 74.105469 58.402344 67.1875 73.953125 55.867188 C 83.5625 48.871094 103.222656 46.085938 103.421875 46.058594 L 103.449219 46.269531 C 103.253906 46.296875 83.640625 49.074219 74.078125 56.035156 C 58.578125 67.320312 55.957031 74.214844 52.332031 83.753906 C 50.15625 89.476562 47.691406 95.957031 42.050781 104.945312 C 34.15625 117.515625 23.15625 124.257812 15.316406 127.703125 C 6.824219 131.429688 0.109375 132.195312 0.0390625 132.203125 Z M 0.0390625 132.203125 " fill-opacity="1" fill-rule="nonzero"/></g><g clip-path="url(#c2cdd80661)"><path fill="#000000" d="M 0.0546875 131.414062 L 0.0117188 131.207031 C 0.078125 131.191406 6.816406 129.785156 15.457031 125.855469 C 23.425781 122.230469 34.695312 115.652344 43.105469 104.925781 C 50.007812 96.121094 52.671875 89.578125 55.023438 83.804688 C 58.363281 75.617188 61.246094 68.542969 75.105469 58.242188 C 84.511719 51.25 103.230469 48.09375 103.417969 48.0625 L 103.449219 48.273438 C 103.261719 48.304688 84.59375 51.449219 75.230469 58.410156 C 61.417969 68.679688 58.546875 75.726562 55.222656 83.886719 C 52.863281 89.671875 50.191406 96.226562 43.269531 105.054688 C 34.832031 115.820312 23.527344 122.414062 15.535156 126.050781 C 6.875 129.988281 0.121094 131.398438 0.0546875 131.414062 Z M 0.0546875 131.414062 " fill-opacity="1" fill-rule="nonzero"/></g><g clip-path="url(#9574024007)"><path fill="#000000" d="M 0.0703125 130.621094 L 0 130.421875 C 0.300781 130.316406 30.214844 120.015625 44.335938 105.015625 C 51.136719 97.789062 54.628906 91.816406 58.007812 86.039062 C 62.417969 78.5 66.585938 71.378906 77.636719 62.664062 C 86.710938 55.507812 103.25 52.542969 103.417969 52.511719 L 103.453125 52.71875 C 103.289062 52.75 86.800781 55.707031 77.765625 62.828125 C 66.746094 71.515625 62.589844 78.625 58.191406 86.144531 C 54.808594 91.929688 51.308594 97.914062 44.488281 105.15625 C 30.332031 120.199219 0.371094 130.519531 0.0703125 130.621094 Z M 0.0703125 130.621094 " fill-opacity="1" fill-rule="nonzero"/></g><g clip-path="url(#1de9fb9fdd)"><path fill="#000000" d="M 0.0820312 129.828125 L -0.0078125 129.636719 C 0.222656 129.53125 23.347656 118.976562 45.5625 105.109375 C 50.636719 97.75 53.230469 91.894531 55.515625 86.726562 C 59.507812 77.710938 62.660156 70.59375 76.167969 60.097656 C 85.167969 53.101562 103.234375 49.835938 103.417969 49.808594 L 103.453125 50.015625 C 103.269531 50.046875 85.253906 53.296875 76.296875 60.261719 C 62.832031 70.730469 59.6875 77.828125 55.710938 86.8125 C 53.417969 91.992188 50.816406 97.863281 45.722656 105.246094 L 45.691406 105.277344 C 23.460938 119.160156 0.3125 129.722656 0.0820312 129.828125 Z M 0.0820312 129.828125 " fill-opacity="1" fill-rule="nonzero"/></g><g clip-path="url(#76aabdeddc)"><path fill="#000000" d="M 0.0898438 129.039062 L -0.0117188 128.851562 C 0.214844 128.726562 22.765625 116.089844 46.796875 105.203125 C 53.605469 97.507812 56.730469 92.082031 59.484375 87.292969 C 63.335938 80.605469 66.664062 74.828125 78.5625 65.355469 C 87.355469 58.359375 103.25 54.113281 103.40625 54.074219 L 103.460938 54.277344 C 103.300781 54.320312 87.449219 58.550781 78.695312 65.523438 C 66.824219 74.96875 63.507812 80.730469 59.671875 87.398438 C 56.90625 92.199219 53.769531 97.640625 46.941406 105.363281 L 46.910156 105.386719 C 22.871094 116.273438 0.316406 128.914062 0.0898438 129.039062 Z M 0.0898438 129.039062 " fill-opacity="1" fill-rule="nonzero"/></g><g clip-path="url(#de8a3ec152)"><path fill="#000000" d="M 0.101562 128.246094 L -0.0195312 128.070312 C 0.199219 127.921875 22.175781 113.203125 48.027344 105.296875 C 53.167969 99.304688 56.234375 94.683594 58.941406 90.605469 C 63.550781 83.664062 67.53125 77.667969 79.714844 67.730469 C 88.300781 60.722656 103.253906 56.121094 103.402344 56.074219 L 103.464844 56.277344 C 103.316406 56.324219 88.402344 60.914062 79.847656 67.894531 C 67.691406 77.8125 63.71875 83.796875 59.121094 90.722656 C 56.40625 94.808594 53.332031 99.441406 48.167969 105.460938 L 48.148438 105.484375 L 48.117188 105.492188 C 22.285156 113.386719 0.316406 128.097656 0.101562 128.246094 Z M 0.101562 128.246094 " fill-opacity="1" fill-rule="nonzero"/></g><g clip-path="url(#a4a9fb1936)"><path fill="#000000" d="M 0.109375 127.453125 L -0.0234375 127.285156 C 0.191406 127.117188 21.59375 110.316406 49.261719 105.394531 C 54.941406 99.566406 58.171875 95.195312 61.296875 90.972656 C 65.777344 84.917969 70.007812 79.195312 80.867188 70.101562 C 89.246094 63.085938 103.261719 58.125 103.402344 58.078125 L 103.46875 58.28125 C 103.328125 58.328125 89.351562 63.273438 81 70.265625 C 70.160156 79.34375 65.9375 85.050781 61.464844 91.097656 C 58.332031 95.332031 55.09375 99.714844 49.390625 105.566406 L 49.363281 105.589844 L 49.332031 105.597656 C 21.699219 110.5 0.320312 127.285156 0.109375 127.453125 Z M 0.109375 127.453125 " fill-opacity="1" fill-rule="nonzero"/></g><g clip-path="url(#4b67651f8a)"><path fill="#000000" d="M 0.117188 126.660156 L -0.0273438 126.503906 C 0.0234375 126.457031 5.253906 121.675781 14.0625 116.722656 C 22.183594 112.15625 35.09375 106.5 50.5 105.488281 C 56.957031 99.75 60.429688 95.503906 64.101562 91.007812 C 68.328125 85.839844 72.695312 80.496094 82.015625 72.476562 C 90.191406 65.449219 103.261719 60.136719 103.394531 60.082031 L 103.476562 60.28125 C 103.34375 60.332031 90.300781 65.632812 82.15625 72.636719 C 72.847656 80.644531 68.488281 85.980469 64.265625 91.144531 C 60.582031 95.652344 57.101562 99.910156 50.609375 105.671875 L 50.582031 105.695312 L 50.546875 105.699219 C 35.167969 106.703125 22.273438 112.347656 14.164062 116.910156 C 5.378906 121.851562 0.167969 126.613281 0.117188 126.660156 Z M 0.117188 126.660156 " fill-opacity="1" fill-rule="nonzero"/></g><g clip-path="url(#0cabf70130)"><path fill="#000000" d="M 0.125 125.867188 L -0.0273438 125.722656 C 0.0234375 125.667969 5.105469 120.355469 13.988281 115.246094 C 22.183594 110.535156 35.390625 105.03125 51.734375 105.585938 C 59.257812 99.933594 63.0625 95.648438 67.472656 90.691406 C 71.277344 86.410156 75.589844 81.554688 83.171875 74.847656 C 91.136719 67.804688 103.269531 62.144531 103.390625 62.085938 L 103.480469 62.28125 C 103.359375 62.335938 91.253906 67.984375 83.316406 75.007812 C 75.742188 81.707031 71.433594 86.554688 67.628906 90.832031 C 63.207031 95.804688 59.386719 100.101562 51.832031 105.777344 L 51.800781 105.800781 L 51.765625 105.800781 C 50.992188 105.773438 50.226562 105.761719 49.46875 105.761719 C 34.210938 105.761719 21.890625 110.949219 14.101562 115.425781 C 5.238281 120.519531 0.175781 125.816406 0.125 125.867188 Z M 0.125 125.867188 " fill-opacity="1" fill-rule="nonzero"/></g><g clip-path="url(#9b3f1e4b24)"><path fill="#000000" d="M 0.132812 125.074219 L -0.0273438 124.9375 C 0.0195312 124.878906 4.953125 119.035156 13.917969 113.769531 C 22.183594 108.914062 35.667969 103.574219 52.972656 105.683594 C 61.773438 100.257812 65.796875 95.996094 71.359375 90.101562 C 74.738281 86.527344 78.5625 82.472656 84.324219 77.222656 C 92.074219 70.15625 103.273438 64.152344 103.386719 64.09375 L 103.484375 64.28125 C 103.375 64.339844 92.195312 70.332031 84.46875 77.378906 C 78.710938 82.628906 74.890625 86.675781 71.515625 90.25 C 65.933594 96.164062 61.898438 100.433594 53.046875 105.886719 L 53.015625 105.90625 L 52.980469 105.898438 C 35.730469 103.785156 22.277344 109.109375 14.03125 113.949219 C 5.097656 119.191406 0.179688 125.015625 0.132812 125.074219 Z M 0.132812 125.074219 " fill-opacity="1" fill-rule="nonzero"/></g><g clip-path="url(#d886762419)"><path fill="#000000" d="M 0.136719 124.28125 L -0.03125 124.15625 C 0.015625 124.089844 4.796875 117.710938 13.839844 112.292969 C 22.179688 107.292969 35.953125 102.109375 54.203125 105.78125 C 64.363281 100.878906 68.578125 96.5625 75.558594 89.414062 C 78.304688 86.601562 81.417969 83.414062 85.476562 79.59375 C 93.007812 72.503906 103.277344 66.160156 103.378906 66.097656 L 103.488281 66.277344 C 103.386719 66.339844 93.136719 72.675781 85.621094 79.75 C 81.566406 83.566406 78.453125 86.75 75.710938 89.5625 C 68.707031 96.734375 64.480469 101.066406 54.265625 105.988281 L 54.230469 106.003906 L 54.199219 105.996094 C 36 102.324219 22.265625 107.492188 13.953125 112.472656 C 4.945312 117.871094 0.1875 124.21875 0.136719 124.28125 Z M 0.136719 124.28125 " fill-opacity="1" fill-rule="nonzero"/></g><g clip-path="url(#9cfa1c11ac)"><path fill="#000000" d="M 0.144531 123.488281 L -0.03125 123.371094 C 0.0117188 123.300781 4.648438 116.390625 13.769531 110.816406 C 19.125 107.542969 24.957031 105.359375 31.105469 104.332031 C 38.777344 103.050781 46.964844 103.570312 55.441406 105.882812 C 66.910156 101.871094 71.484375 97.226562 79.785156 88.804688 C 81.773438 86.785156 84.027344 84.5 86.628906 81.96875 C 93.941406 74.851562 103.28125 68.167969 103.375 68.101562 L 103.5 68.273438 C 103.40625 68.339844 94.078125 75.011719 86.777344 82.117188 C 84.175781 84.648438 81.925781 86.9375 79.933594 88.953125 C 71.605469 97.40625 67.019531 102.0625 55.480469 106.09375 L 55.449219 106.105469 L 55.417969 106.09375 C 36.28125 100.863281 22.269531 105.867188 13.890625 110.992188 C 4.804688 116.542969 0.1875 123.417969 0.144531 123.488281 Z M 0.144531 123.488281 " fill-opacity="1" fill-rule="nonzero"/></g><g clip-path="url(#1295833de0)"><path fill="#000000" d="M 0.148438 122.699219 L -0.0351562 122.589844 C 0.0078125 122.511719 4.496094 115.070312 13.695312 109.339844 C 19.09375 105.972656 25.042969 103.84375 31.371094 103.015625 C 39.265625 101.984375 47.78125 102.984375 56.671875 105.984375 C 69.339844 103.214844 74.167969 98.261719 83.792969 88.402344 C 85.050781 87.113281 86.355469 85.78125 87.777344 84.339844 C 94.867188 77.1875 103.28125 70.179688 103.367188 70.109375 L 103.503906 70.273438 C 103.417969 70.34375 95.007812 77.347656 87.925781 84.492188 C 86.503906 85.929688 85.203125 87.261719 83.945312 88.550781 C 74.285156 98.449219 69.4375 103.417969 56.691406 106.199219 L 56.660156 106.207031 L 56.632812 106.195312 C 36.550781 99.402344 22.261719 104.253906 13.8125 109.515625 C 4.660156 115.21875 0.191406 122.625 0.148438 122.699219 Z M 0.148438 122.699219 " fill-opacity="1" fill-rule="nonzero"/></g><g clip-path="url(#a7bcec85ca)"><path fill="#000000" d="M 0.152344 121.90625 L -0.0351562 121.804688 C 0.0078125 121.726562 4.347656 113.75 13.621094 107.863281 C 19.066406 104.40625 25.128906 102.332031 31.636719 101.703125 C 39.753906 100.917969 48.59375 102.394531 57.910156 106.089844 C 71.664062 104.867188 76.949219 99.3125 87.46875 88.253906 L 88.929688 86.714844 C 95.789062 79.523438 103.285156 72.191406 103.359375 72.121094 L 103.507812 72.269531 C 103.433594 72.34375 95.9375 79.671875 89.082031 86.859375 L 87.621094 88.398438 C 77.054688 99.503906 71.753906 105.078125 57.902344 106.304688 L 57.878906 106.304688 L 57.851562 106.296875 C 36.820312 97.945312 22.253906 102.636719 13.730469 108.042969 C 4.507812 113.898438 0.195312 121.824219 0.152344 121.90625 Z M 0.152344 121.90625 " fill-opacity="1" fill-rule="nonzero"/></g><g clip-path="url(#b84c54cb44)"><path fill="#000000" d="M 0.15625 121.117188 L -0.03125 121.019531 C 0.0117188 120.9375 4.34375 112.636719 13.761719 106.699219 C 19.300781 103.214844 25.484375 101.207031 32.140625 100.746094 C 40.457031 100.167969 49.539062 101.996094 59.144531 106.191406 C 59.773438 106.21875 60.386719 106.226562 60.988281 106.226562 C 73.820312 106.226562 79.648438 100.5 90.082031 89.085938 C 96.699219 81.851562 103.289062 74.203125 103.355469 74.125 L 103.515625 74.265625 C 103.449219 74.34375 96.855469 81.992188 90.238281 89.230469 C 80.109375 100.308594 73.992188 107 59.117188 106.402344 L 59.078125 106.394531 C 37.398438 96.921875 22.539062 101.425781 13.882812 106.875 C 4.507812 112.78125 0.199219 121.035156 0.15625 121.117188 Z M 0.15625 121.117188 " fill-opacity="1" fill-rule="nonzero"/></g><g clip-path="url(#e1dff7dfbe)"><path fill="#000000" d="M 0.160156 120.320312 L -0.0351562 120.238281 C 0.0117188 120.125 4.835938 108.503906 18.101562 102.988281 C 29.621094 98.195312 43.851562 99.308594 60.386719 106.296875 C 73.238281 111.734375 83.417969 100.261719 90.152344 92.675781 C 90.523438 92.257812 90.886719 91.851562 91.234375 91.460938 C 97.691406 84.246094 103.289062 76.21875 103.347656 76.136719 L 103.523438 76.257812 C 103.464844 76.339844 97.859375 84.378906 91.390625 91.601562 C 91.042969 91.992188 90.679688 92.398438 90.308594 92.816406 C 83.535156 100.449219 73.292969 111.980469 60.300781 106.492188 C 43.820312 99.523438 29.652344 98.414062 18.179688 103.183594 C 5 108.667969 0.207031 120.203125 0.160156 120.320312 Z M 0.160156 120.320312 " fill-opacity="1" fill-rule="nonzero"/></g><g clip-path="url(#9a48c7193f)"><path fill="#000000" d="M 0.167969 119.53125 L -0.03125 119.453125 C 0.015625 119.332031 4.789062 107.167969 18.253906 101.6875 C 29.992188 96.90625 44.578125 98.496094 61.617188 106.402344 C 67.894531 109.316406 73.558594 109.316406 78.9375 106.414062 C 83.96875 103.695312 88.339844 98.707031 92.386719 93.835938 C 98.492188 86.480469 103.296875 78.230469 103.34375 78.148438 L 103.523438 78.253906 C 103.480469 78.335938 98.667969 86.601562 92.546875 93.96875 C 83.6875 104.640625 75.230469 112.957031 61.527344 106.59375 C 44.546875 98.714844 30.011719 97.128906 18.335938 101.882812 C 4.957031 107.328125 0.210938 119.40625 0.167969 119.53125 Z M 0.167969 119.53125 " fill-opacity="1" fill-rule="nonzero"/></g><g clip-path="url(#fdfc846d6b)"><path fill="#000000" d="M 0.167969 118.738281 L -0.03125 118.667969 C 0.0117188 118.542969 4.503906 105.925781 17.960938 100.421875 C 29.902344 95.539062 45.003906 97.582031 62.847656 106.503906 C 77.121094 113.636719 86.03125 105.773438 93.539062 96.210938 C 99.367188 88.785156 103.300781 80.246094 103.339844 80.160156 L 103.53125 80.25 C 103.492188 80.335938 99.550781 88.894531 93.703125 96.34375 C 90.488281 100.441406 86.105469 105.460938 80.722656 107.898438 C 75.230469 110.386719 69.351562 109.992188 62.753906 106.695312 C 44.96875 97.804688 29.929688 95.757812 18.042969 100.621094 C 4.671875 106.085938 0.214844 118.613281 0.167969 118.738281 Z M 0.167969 118.738281 " fill-opacity="1" fill-rule="nonzero"/></g><g clip-path="url(#885d050968)"><path fill="#000000" d="M 0.171875 117.949219 L -0.03125 117.882812 C 0.015625 117.738281 4.722656 103.40625 18.929688 97.921875 C 31.007812 93.261719 46.203125 96.183594 64.078125 106.605469 C 79.5625 115.640625 88.964844 106.355469 94.6875 98.585938 C 100.222656 91.070312 103.304688 82.257812 103.335938 82.167969 L 103.539062 82.238281 C 103.503906 82.328125 100.410156 91.171875 94.859375 98.710938 C 89.089844 106.546875 79.613281 115.910156 63.972656 106.789062 C 46.15625 96.398438 31.03125 93.488281 19.011719 98.117188 C 4.898438 103.5625 0.21875 117.804688 0.171875 117.949219 Z M 0.171875 117.949219 " fill-opacity="1" fill-rule="nonzero"/></g><g clip-path="url(#9394209379)"><path fill="#000000" d="M 0.175781 117.160156 L -0.03125 117.097656 C 0.0195312 116.9375 4.976562 100.914062 19.886719 95.507812 C 32.117188 91.066406 47.402344 94.835938 65.308594 106.710938 C 72.476562 111.464844 79.097656 112.699219 84.996094 110.390625 C 98.023438 105.289062 103.28125 84.394531 103.332031 84.183594 L 103.539062 84.234375 C 103.488281 84.445312 98.199219 105.445312 85.070312 110.589844 C 79.109375 112.925781 72.417969 111.683594 65.191406 106.890625 C 47.34375 95.058594 32.128906 91.292969 19.960938 95.707031 C 5.152344 101.074219 0.222656 116.996094 0.175781 117.160156 Z M 0.175781 117.160156 " fill-opacity="1" fill-rule="nonzero"/></g></svg>