<svg xmlns="http://www.w3.org/2000/svg" xmlns:xlink="http://www.w3.org/1999/xlink" width="40" zoomAndPan="magnify" viewBox="0 0 30 30.000001" height="40" preserveAspectRatio="xMidYMid meet" version="1.0"><defs><clipPath id="f4904434bd"><path d="M 1.863281 1.378906 L 27.992188 1.378906 L 27.992188 27.507812 L 1.863281 27.507812 Z M 1.863281 1.378906 " clip-rule="nonzero"/></clipPath><clipPath id="67ef25d0e9"><path d="M 11.179688 7.007812 L 21.339844 7.007812 L 21.339844 28.78125 L 11.179688 28.78125 Z M 11.179688 7.007812 " clip-rule="nonzero"/></clipPath></defs><g clip-path="url(#f4904434bd)"><path fill="#ca9479" d="M 28.128906 14.511719 C 28.128906 15.375 28.042969 16.226562 27.875 17.074219 C 27.707031 17.917969 27.457031 18.742188 27.128906 19.539062 C 26.796875 20.332031 26.394531 21.089844 25.914062 21.808594 C 25.4375 22.523438 24.890625 23.1875 24.28125 23.796875 C 23.671875 24.40625 23.007812 24.953125 22.292969 25.429688 C 21.574219 25.910156 20.816406 26.316406 20.019531 26.644531 C 19.222656 26.972656 18.402344 27.222656 17.558594 27.390625 C 16.710938 27.558594 15.859375 27.644531 14.996094 27.644531 C 14.132812 27.644531 13.277344 27.558594 12.433594 27.390625 C 11.585938 27.222656 10.765625 26.972656 9.96875 26.644531 C 9.171875 26.316406 8.417969 25.910156 7.699219 25.429688 C 6.984375 24.953125 6.320312 24.40625 5.710938 23.796875 C 5.097656 23.1875 4.554688 22.523438 4.074219 21.808594 C 3.597656 21.089844 3.191406 20.332031 2.863281 19.539062 C 2.53125 18.742188 2.285156 17.917969 2.117188 17.074219 C 1.945312 16.226562 1.863281 15.375 1.863281 14.511719 C 1.863281 13.648438 1.945312 12.796875 2.117188 11.949219 C 2.285156 11.105469 2.53125 10.28125 2.863281 9.484375 C 3.191406 8.6875 3.597656 7.933594 4.074219 7.214844 C 4.554688 6.5 5.097656 5.835938 5.710938 5.226562 C 6.320312 4.617188 6.984375 4.070312 7.699219 3.59375 C 8.417969 3.113281 9.171875 2.707031 9.96875 2.378906 C 10.765625 2.046875 11.585938 1.800781 12.433594 1.632812 C 13.277344 1.464844 14.132812 1.378906 14.996094 1.378906 C 15.859375 1.378906 16.710938 1.464844 17.558594 1.632812 C 18.402344 1.800781 19.222656 2.046875 20.019531 2.378906 C 20.816406 2.707031 21.574219 3.113281 22.292969 3.59375 C 23.007812 4.070312 23.671875 4.617188 24.28125 5.226562 C 24.890625 5.835938 25.4375 6.5 25.914062 7.214844 C 26.394531 7.933594 26.796875 8.6875 27.128906 9.484375 C 27.457031 10.28125 27.707031 11.105469 27.875 11.949219 C 28.042969 12.796875 28.128906 13.648438 28.128906 14.511719 Z M 28.128906 14.511719 " fill-opacity="1" fill-rule="nonzero"/></g><g clip-path="url(#67ef25d0e9)"><path fill="#ffffff" d="M 18.996094 10.625 L 21.339844 10.625 L 21.339844 7.046875 L 18.347656 7.046875 L 18.347656 7.058594 C 14.410156 7.207031 13.597656 9.4375 13.53125 11.796875 L 13.523438 11.796875 L 13.523438 14.277344 L 11.179688 14.277344 L 11.179688 17.859375 L 13.523438 17.859375 L 13.523438 28.742188 L 17.726562 28.742188 L 17.726562 17.859375 L 20.746094 17.859375 L 21.339844 14.277344 L 17.726562 14.277344 L 17.726562 12.054688 C 17.726562 11.265625 18.25 10.625 18.996094 10.625 Z M 18.996094 10.625 " fill-opacity="1" fill-rule="nonzero"/></g></svg>