<svg xmlns="http://www.w3.org/2000/svg" xmlns:xlink="http://www.w3.org/1999/xlink" width="40" zoomAndPan="magnify" viewBox="0 0 30 30.000001" height="40" preserveAspectRatio="xMidYMid meet" version="1.0"><defs><clipPath id="4119ab5289"><path d="M 1.320312 0.835938 L 28.898438 0.835938 L 28.898438 28.414062 L 1.320312 28.414062 Z M 1.320312 0.835938 " clip-rule="nonzero"/></clipPath></defs><g clip-path="url(#4119ab5289)"><path fill="#ca9479" d="M 29.003906 14.675781 C 29.003906 15.585938 28.914062 16.488281 28.738281 17.378906 C 28.5625 18.269531 28.296875 19.136719 27.949219 19.976562 C 27.601562 20.816406 27.175781 21.613281 26.671875 22.367188 C 26.167969 23.125 25.59375 23.824219 24.949219 24.464844 C 24.308594 25.109375 23.609375 25.683594 22.851562 26.1875 C 22.097656 26.691406 21.296875 27.117188 20.460938 27.46875 C 19.621094 27.816406 18.753906 28.078125 17.863281 28.253906 C 16.96875 28.433594 16.070312 28.519531 15.160156 28.519531 C 14.253906 28.519531 13.351562 28.433594 12.460938 28.253906 C 11.570312 28.078125 10.703125 27.816406 9.863281 27.46875 C 9.023438 27.117188 8.226562 26.691406 7.472656 26.1875 C 6.714844 25.683594 6.015625 25.109375 5.375 24.464844 C 4.730469 23.824219 4.15625 23.125 3.652344 22.367188 C 3.148438 21.613281 2.71875 20.816406 2.371094 19.976562 C 2.023438 19.136719 1.761719 18.269531 1.585938 17.378906 C 1.40625 16.488281 1.320312 15.585938 1.320312 14.675781 C 1.320312 13.769531 1.40625 12.867188 1.585938 11.976562 C 1.761719 11.085938 2.023438 10.21875 2.371094 9.378906 C 2.71875 8.539062 3.148438 7.742188 3.652344 6.988281 C 4.15625 6.230469 4.730469 5.53125 5.375 4.890625 C 6.015625 4.246094 6.714844 3.671875 7.472656 3.167969 C 8.226562 2.664062 9.023438 2.234375 9.863281 1.886719 C 10.703125 1.539062 11.570312 1.277344 12.460938 1.101562 C 13.351562 0.921875 14.253906 0.835938 15.160156 0.835938 C 16.070312 0.835938 16.96875 0.921875 17.863281 1.101562 C 18.753906 1.277344 19.621094 1.539062 20.460938 1.886719 C 21.296875 2.234375 22.097656 2.664062 22.851562 3.167969 C 23.609375 3.671875 24.308594 4.246094 24.949219 4.890625 C 25.59375 5.53125 26.167969 6.230469 26.671875 6.988281 C 27.175781 7.742188 27.601562 8.539062 27.949219 9.378906 C 28.296875 10.21875 28.5625 11.085938 28.738281 11.976562 C 28.914062 12.867188 29.003906 13.769531 29.003906 14.675781 Z M 29.003906 14.675781 " fill-opacity="1" fill-rule="nonzero"/></g><path fill="#fefefe" d="M 20.53125 22.976562 L 9.785156 22.976562 C 9 22.976562 8.257812 22.667969 7.695312 22.105469 C 7.132812 21.542969 6.820312 20.800781 6.820312 20.015625 L 6.820312 9.332031 C 6.820312 8.550781 7.132812 7.804688 7.695312 7.242188 C 8.257812 6.679688 9 6.371094 9.785156 6.371094 L 20.53125 6.371094 C 21.316406 6.371094 22.058594 6.679688 22.621094 7.242188 C 23.183594 7.808594 23.496094 8.550781 23.496094 9.332031 L 23.496094 20.015625 C 23.496094 20.800781 23.183594 21.542969 22.621094 22.105469 C 22.058594 22.667969 21.316406 22.976562 20.53125 22.976562 Z M 9.785156 6.828125 C 8.402344 6.828125 7.277344 7.949219 7.277344 9.332031 L 7.277344 20.015625 C 7.277344 21.398438 8.402344 22.523438 9.785156 22.523438 L 20.53125 22.523438 C 21.914062 22.523438 23.039062 21.398438 23.039062 20.015625 L 23.039062 9.332031 C 23.039062 7.949219 21.914062 6.828125 20.53125 6.828125 Z M 9.785156 6.828125 " fill-opacity="1" fill-rule="evenodd"/><path fill="#fefefe" d="M 15.160156 18.648438 C 14.089844 18.648438 13.089844 18.238281 12.34375 17.488281 C 11.597656 16.738281 11.1875 15.742188 11.1875 14.675781 C 11.1875 13.605469 11.597656 12.605469 12.34375 11.859375 C 13.09375 11.113281 14.089844 10.703125 15.160156 10.703125 C 16.226562 10.703125 17.226562 11.113281 17.972656 11.859375 C 18.71875 12.609375 19.132812 13.605469 19.132812 14.675781 C 19.132812 15.742188 18.722656 16.742188 17.972656 17.488281 C 17.222656 18.234375 16.226562 18.648438 15.160156 18.648438 Z M 15.160156 11.15625 C 13.183594 11.15625 11.640625 12.699219 11.640625 14.675781 C 11.640625 16.648438 13.183594 18.191406 15.160156 18.191406 C 17.132812 18.191406 18.675781 16.648438 18.675781 14.675781 C 18.675781 12.699219 17.132812 11.15625 15.160156 11.15625 Z M 15.160156 11.15625 " fill-opacity="1" fill-rule="evenodd"/><path fill="#fefefe" d="M 20.140625 11.058594 C 19.421875 11.058594 18.839844 10.488281 18.839844 9.789062 C 18.839844 9.082031 19.433594 8.488281 20.140625 8.488281 C 20.839844 8.488281 21.410156 9.070312 21.410156 9.789062 C 21.410156 10.503906 20.855469 11.058594 20.140625 11.058594 Z M 20.140625 8.941406 C 19.679688 8.941406 19.292969 9.332031 19.292969 9.789062 C 19.292969 10.238281 19.675781 10.605469 20.140625 10.605469 C 20.597656 10.605469 20.953125 10.246094 20.953125 9.789062 C 20.953125 9.324219 20.589844 8.941406 20.140625 8.941406 Z M 20.140625 8.941406 " fill-opacity="1" fill-rule="evenodd"/></svg>