<svg xmlns="http://www.w3.org/2000/svg" xmlns:xlink="http://www.w3.org/1999/xlink" width="139" zoomAndPan="magnify" viewBox="0 0 104.25 116.999995" height="156" preserveAspectRatio="xMidYMid meet" version="1.0"><defs><clipPath id="5992d3d31f"><path d="M 0 34 L 103.503906 34 L 103.503906 116.582031 L 0 116.582031 Z M 0 34 " clip-rule="nonzero"/></clipPath><clipPath id="e1589b2304"><path d="M 2.25 28.316406 L 112.300781 34.214844 L 107 133.109375 L -3.050781 127.214844 Z M 2.25 28.316406 " clip-rule="nonzero"/></clipPath><clipPath id="cdae7f08d8"><path d="M 2.25 28.316406 L 108.582031 34.015625 L 103.839844 122.5 L -2.492188 116.804688 Z M 2.25 28.316406 " clip-rule="nonzero"/></clipPath><clipPath id="eded526557"><path d="M 2.25 28.316406 L 112.300781 34.214844 L 107 133.109375 L -3.050781 127.214844 Z M 2.25 28.316406 " clip-rule="nonzero"/></clipPath></defs><g clip-path="url(#5992d3d31f)"><g clip-path="url(#e1589b2304)"><g clip-path="url(#cdae7f08d8)"><g clip-path="url(#eded526557)"><path fill="#000000" d="M 111.933594 34.195312 C 111.4375 35.230469 110.992188 36.3125 110.558594 37.355469 C 109.863281 39.167969 109.03125 40.914062 108.066406 42.59375 C 103.023438 50.847656 94.589844 51.808594 85.660156 52.828125 C 81.164062 53.339844 76.519531 53.867188 72.417969 55.429688 C 65.816406 57.949219 62.25 61.390625 58.324219 66.484375 C 55.667969 69.9375 53.332031 73.824219 51.074219 77.582031 C 46.527344 85.160156 41.820312 92.996094 34.152344 97.816406 C 30.285156 100.25 25.832031 101.726562 21.527344 103.152344 C 16.820312 104.710938 11.953125 106.324219 7.824219 109.191406 C 2.664062 112.777344 -1.15625 118.59375 -2.648438 125.15625 C -2.800781 125.820312 -2.929688 126.496094 -3.03125 127.164062 L -2.644531 127.222656 C -2.546875 126.566406 -2.417969 125.898438 -2.269531 125.242188 C -0.796875 118.777344 2.964844 113.042969 8.046875 109.511719 C 12.128906 106.679688 16.96875 105.074219 21.648438 103.523438 C 25.976562 102.089844 30.453125 100.605469 34.359375 98.148438 C 42.109375 93.277344 46.835938 85.402344 51.410156 77.785156 C 53.660156 74.035156 55.988281 70.15625 58.636719 66.722656 C 62.519531 61.683594 66.039062 58.28125 72.554688 55.796875 C 76.609375 54.25 81.234375 53.726562 85.703125 53.214844 C 94.332031 52.234375 103.257812 51.214844 108.398438 42.796875 C 109.375 41.101562 110.214844 39.335938 110.917969 37.507812 C 111.347656 36.464844 111.792969 35.390625 112.285156 34.363281 L 111.933594 34.195312 " fill-opacity="1" fill-rule="nonzero"/></g></g></g></g></svg>