<svg xmlns="http://www.w3.org/2000/svg" xmlns:xlink="http://www.w3.org/1999/xlink" width="139" zoomAndPan="magnify" viewBox="0 0 104.25 116.999995" height="156" preserveAspectRatio="xMidYMid meet" version="1.0"><defs><clipPath id="cf129702a9"><path d="M 0 75 L 103.503906 75 L 103.503906 116.582031 L 0 116.582031 Z M 0 75 " clip-rule="nonzero"/></clipPath><clipPath id="814f211cfb"><path d="M 33.917969 32.859375 L 135.503906 75.597656 L 97.097656 166.882812 L -4.488281 124.144531 Z M 33.917969 32.859375 " clip-rule="nonzero"/></clipPath><clipPath id="e702f82e5e"><path d="M 33.917969 32.859375 L 123.148438 70.398438 L 87.917969 154.136719 L -1.308594 116.59375 Z M 33.917969 32.859375 " clip-rule="nonzero"/></clipPath><clipPath id="a3b99a7313"><path d="M 33.917969 32.859375 L 135.503906 75.597656 L 97.097656 166.882812 L -4.488281 124.144531 Z M 33.917969 32.859375 " clip-rule="nonzero"/></clipPath></defs><g clip-path="url(#cf129702a9)"><g clip-path="url(#814f211cfb)"><g clip-path="url(#e702f82e5e)"><g clip-path="url(#a3b99a7313)"><path fill="#000000" d="M 135.164062 75.453125 C 134.347656 76.261719 133.5625 77.128906 132.800781 77.964844 C 131.535156 79.433594 130.164062 80.796875 128.6875 82.054688 C 121.152344 88.117188 112.890625 86.171875 104.140625 84.113281 C 99.738281 83.074219 95.183594 82.003906 90.796875 82.089844 C 83.730469 82.226562 79.214844 84.261719 73.800781 87.730469 C 70.128906 90.078125 66.621094 92.949219 63.226562 95.722656 C 56.382812 101.320312 49.304688 107.105469 40.460938 109.050781 C 36 110.03125 31.308594 109.917969 26.773438 109.804688 C 21.816406 109.683594 16.691406 109.554688 11.835938 110.859375 C 5.765625 112.488281 0.207031 116.675781 -3.414062 122.34375 C -3.78125 122.917969 -4.132812 123.511719 -4.453125 124.105469 L -4.109375 124.292969 C -3.792969 123.707031 -3.449219 123.121094 -3.085938 122.554688 C 0.484375 116.964844 5.960938 112.839844 11.9375 111.238281 C 16.738281 109.949219 21.835938 110.074219 26.765625 110.195312 C 31.320312 110.308594 36.035156 110.425781 40.542969 109.433594 C 49.480469 107.464844 56.59375 101.652344 63.472656 96.027344 C 66.859375 93.257812 70.359375 90.398438 74.011719 88.058594 C 79.367188 84.628906 83.832031 82.617188 90.804688 82.480469 C 95.140625 82.394531 99.671875 83.460938 104.050781 84.492188 C 112.503906 86.484375 121.25 88.542969 128.929688 82.359375 C 130.425781 81.089844 131.8125 79.710938 133.089844 78.226562 C 133.847656 77.394531 134.628906 76.535156 135.441406 75.730469 L 135.164062 75.453125 " fill-opacity="1" fill-rule="nonzero"/></g></g></g></g></svg>