<svg xmlns="http://www.w3.org/2000/svg" xmlns:xlink="http://www.w3.org/1999/xlink" width="500" zoomAndPan="magnify" viewBox="0 0 375 299.999988" height="400" preserveAspectRatio="xMidYMid meet" version="1.0"><defs><clipPath id="ad5b3b9aba"><path d="M 0 100 L 375 100 L 375 300 L 0 300 Z M 0 100 " clip-rule="nonzero"/></clipPath><clipPath id="ea1fd7d089"><path d="M -159.945312 288.355469 L 90.738281 -129.75 L 474.753906 100.496094 L 224.070312 518.601562 Z M -159.945312 288.355469 " clip-rule="nonzero"/></clipPath><clipPath id="189e67e568"><path d="M -159.945312 288.355469 L 90.738281 -129.75 L 474.753906 100.496094 L 224.070312 518.601562 Z M -159.945312 288.355469 " clip-rule="nonzero"/></clipPath></defs><g clip-path="url(#ad5b3b9aba)"><g clip-path="url(#ea1fd7d089)"><g clip-path="url(#189e67e568)"><path fill="#b6a0a5" d="M -155.589844 286.445312 C -132.425781 302.492188 -108.523438 319.1875 -81.070312 326.707031 C -59.074219 332.699219 -34.527344 332.722656 -14.019531 322 C 9.042969 309.929688 23.019531 286.449219 34.574219 264.089844 C 46.117188 241.925781 57.023438 218.253906 76.0625 201.40625 C 84.933594 193.46875 95.574219 187.722656 107.136719 184.890625 C 117.851562 182.273438 128.933594 182.132812 139.863281 183.445312 C 162.6875 186.339844 184.046875 195.449219 204.699219 205.054688 C 227.300781 215.523438 250.28125 226.734375 275.328125 230.035156 C 287.148438 231.574219 299.195312 231.191406 310.835938 228.40625 C 321.988281 225.742188 332.628906 221.023438 342.484375 215.214844 C 386.328125 189.398438 412.628906 143.304688 454.566406 115.007812 C 459.902344 111.425781 465.445312 108.171875 471.160156 105.328125 C 472.640625 104.574219 473.351562 99.449219 471.128906 100.582031 C 424.820312 123.480469 397.867188 170.320312 357.203125 200.609375 C 338.582031 214.523438 316.957031 224.882812 293.40625 225.765625 C 268.191406 226.679688 244.019531 217.121094 221.480469 206.894531 C 182.65625 189.371094 136.136719 164.460938 93.5625 185.078125 C 71.027344 195.921875 56.433594 217.695312 44.800781 238.980469 C 32.535156 261.324219 22.671875 285.832031 4.203125 303.945312 C -4.652344 312.714844 -15.425781 319.203125 -27.425781 322.59375 C -38.414062 325.664062 -50.085938 326.273438 -61.496094 325.082031 C -89.054688 322.023438 -113.5625 308.5625 -136.132812 293.589844 C -142 289.660156 -147.746094 285.703125 -153.566406 281.699219 C -155.214844 280.503906 -157.011719 285.386719 -155.589844 286.445312 Z M -155.589844 286.445312 " fill-opacity="1" fill-rule="nonzero"/></g></g></g></svg>